<svg height="512" viewBox="0 0 64 64" width="512" xmlns="http://www.w3.org/2000/svg"><g id="flat"><path d="m47 3.016a14.277 14.277 0 0 0 -15 13.984 14.277 14.277 0 0 0 -15-13.984 13.629 13.629 0 0 0 -13 13.984v4c0 7.19 2.321 12.541 7 18l1 1a27.736 27.736 0 0 1 5 10 15.193 15.193 0 0 0 15 11 15.193 15.193 0 0 0 15-11 27.736 27.736 0 0 1 5-10l1-1c4.679-5.459 7-10.81 7-18v-4a13.629 13.629 0 0 0 -13-13.984z" fill="#f98c96"/><path d="m47 25h6a0 0 0 0 1 0 0 10 10 0 0 1 -10 10h-6a0 0 0 0 1 0 0 10 10 0 0 1 10-10z" fill="#f4f4e6" transform="matrix(-1 0 0 -1 90 60)"/><path d="m28 40h2v2h-2z" fill="#394d5c"/><path d="m34 40h2v2h-2z" fill="#394d5c"/><path d="m32 52a1 1 0 0 1 -.707-.293l-2.707-2.707h-4.586v-2h5a1 1 0 0 1 .707.293l2.293 2.293 2.293-2.293a1 1 0 0 1 .707-.293h6v2h-5.586l-2.707 2.707a1 1 0 0 1 -.707.293z" fill="#394d5c"/><g fill="#db527d"><path d="m30 54h4v2h-4z"/><path d="m36.311 25.725a6.249 6.249 0 0 0 -8.621 0l-1.38-1.448a8.251 8.251 0 0 1 11.379 0z"/><path d="m37.2 20.6a6.5 6.5 0 0 0 -10.4 0l-1.6-1.2a8.5 8.5 0 0 1 13.6 0z"/><path d="m57 21h-2v-3a10.011 10.011 0 0 0 -10-10v-2a12.013 12.013 0 0 1 12 12z"/><path d="m41 7h2v2h-2z"/><path d="m7 17h2v2h-2z"/><path d="m10 13h2v2h-2z"/><path d="m20 45a1 1 0 0 1 -1-1v-1a4 4 0 0 0 -4-4h-2a1 1 0 0 1 -1-1 1 1 0 0 1 1-1h2a6 6 0 0 1 6 6v1a1 1 0 0 1 -1 1z"/><path d="m44 45a1 1 0 0 1 -1-1v-1a6 6 0 0 1 6-6h2a1 1 0 0 1 1 1 1 1 0 0 1 -1 1h-2a4 4 0 0 0 -4 4v1a1 1 0 0 1 -1 1z"/></g><path d="m11 25h6a10 10 0 0 1 10 10 0 0 0 0 1 0 0h-6a10 10 0 0 1 -10-10 0 0 0 0 1 0 0z" fill="#f4f4e6"/><path d="m19 32a1 1 0 0 1 -1-1v-2a1 1 0 0 1 2 0v2a1 1 0 0 1 -1 1z" fill="#143441"/><path d="m45 32a1 1 0 0 1 -1-1v-2a1 1 0 0 1 2 0v2a1 1 0 0 1 -1 1z" fill="#143441"/></g></svg>