<svg height="512" viewBox="0 0 60 60" width="512" xmlns="http://www.w3.org/2000/svg"><g id="019---Alien" fill="none"><g id="Icons" transform="translate(0 1)"><path id="Shape" d="m59 28.47c-.66 6.94-6.07 10.59-11.57 12.17-.8388116.2493172-1.4181384 1.015001-1.43 1.89v11.47c.0053948 1.1320283-.4691332 2.2133317-1.3059128 2.9757732s-1.9574409 1.1346137-3.0840872 1.0242268c-2.0934905-.2607341-3.6517768-2.0607491-3.61-4.17v-6.83c.0086721-.5949634-.2480232-1.1628937-.7003464-1.5494947-.4523232-.3866011-1.0532991-.551723-1.6396536-.4505053-.9962504.2005094-1.6996146 1.0945447-1.66 2.11v6.89c.0053948 1.1320283-.4691332 2.2133317-1.3059128 2.9757732s-1.9574409 1.1346137-3.0840872 1.0242268c-2.0934905-.2607341-3.6517768-2.0607491-3.61-4.17v-6.83c0-1.1045695-.8954305-2-2-2-.5500535-.0008326-1.0761694.224913-1.4545712.6241268-.3784017.3992139-.5756824.9366517-.5454288 1.4858732v6.89c.0053948 1.1320283-.4691332 2.2133317-1.3059128 2.9757732s-1.9574409 1.1346137-3.0840872 1.0242268c-2.0934905-.2607341-3.6517768-2.0607491-3.61-4.17 0 0 0-7.89 0-11.3-.0131967-.8777546-.5972314-1.6443001-1.44-1.89-5.48-1.58-10.89-5.23-11.56-12.17-.10073076-1.212915.65664828-2.3323378 1.82-2.69 1.260992-.3949344 2.61974562.203259 3.18 1.4.78799957 1.6674215 2.01962208 3.0858631 3.56 4.1.32247042.20394.7328888.2066076 1.057983.0068765.3250941-.199731.5082015-.5670484.472017-.9468765-.5160184-7.0987761 2.978751-13.890615 9.0548191-17.5974051 6.0760682-3.70679017 13.7142936-3.70679017 19.7903618 0 6.0760681 3.7067901 9.5708375 10.498629 9.0548191 17.5974051-.0361845.3798281.1469229.7471455.472017.9468765.3250942.1997311.7355126.1970635 1.057983-.0068765 1.5109043-1.0251713 2.7139787-2.4425865 3.48-4.1.5598364-1.1704498 1.8824189-1.7662457 3.13-1.41 1.1824469.3458579 1.9620251 1.4714522 1.87 2.7z" fill="#ffdc00"/><path id="Shape" d="m59 28.47c-.66 6.94-6.07 10.59-11.57 12.17-.8388116.2493172-1.4181384 1.015001-1.43 1.89v11.47c-.0020292 1.3251507-.6602102 2.563284-1.7575384 3.3061832s-2.4913537.8941247-3.7224616.4038168c1.5037911-.6177767 2.4840842-2.0842635 2.48-3.71 0 0 0-8 0-11.47.0131967-.8777546.5972314-1.6443001 1.44-1.89 5.5-1.58 10.91-5.23 11.57-12.17.0704117-.9043878-.3302106-1.7812214-1.06-2.32.8169585-.5812878 1.8973835-.6343854 2.7674024-.1360042s1.3707594 1.4572328 1.2825976 2.4560042z" fill="#fec108"/><path id="Shape" d="m49 30.08c-.4551579.4489663-.9543392.8509915-1.49 1.2-.3215786.1923651-.7237163.1888012-1.0418351-.009233s-.4988257-.5573007-.4681649-.930767c.7345931-10.4180271-7.0771108-19.4758519-17.49-20.28 5.4742427-.43957282 10.8709114 1.5110314 14.7990352 5.3490518 3.9281238 3.8380205 6.0034113 9.1879805 5.6909648 14.6709482z" fill="#fec108"/><path id="Shape" d="m29.72 17c-5.4864183.3041882-9.7658061 4.8653464-9.72 10.36-.0012248 1.2953949.6842325 2.4943911 1.8011482 3.1505534 1.1169157.6561622 2.4979364.6711743 3.6288518.0394466 2.853497-1.5343059 6.286503-1.5343059 9.14 0 1.1246973.6283378 2.4973359.6172267 3.6117141-.0292358 1.1143781-.6464625 1.805421-1.8325146 1.8182859-3.1207642.062515-2.7560668-.9965109-5.419437-2.9345017-7.3800503-1.9379908-1.9606132-4.5888916-3.0504762-7.3454983-3.0199497z" fill="#ff5722"/><path id="Shape" d="m30 23c-1.9883484-.002484-3.8681175.9066304-5.100693 2.4668525-1.2325755 1.5602222-1.6819293 3.5993647-1.219307 5.5331475.6105682-.0105616 1.2100737-.1647201 1.75-.45 2.853497-1.5343059 6.286503-1.5343059 9.14 0 .5399263.2852799 1.1394318.4394384 1.75.45.4585311-1.9333347.0075948-3.9702068-1.2241228-5.529343s-3.1089117-2.4692646-5.0958772-2.470657z" fill="#ef314c"/><path id="Shape" d="m48 7c-.0009336 1.45563844-1.0466857 2.70056541-2.4803179 2.95272155-1.4336323.25215615-2.8414129-.56122824-3.3389785-1.92918754-.4975655-1.36795931.0586764-2.89571434 1.3192964-3.62353401.9285009-.53607053 2.0725043-.5358873 3.0008334.00048064.9283291.53636793 1.4998543 1.52737896 1.4991666 2.59951936z" fill="#283593"/><path id="Shape" d="m43.5 9.6c-.9300833-.53539277-1.503337-1.52682697-1.503337-2.6s.5732537-2.06460723 1.503337-2.6c.9300833.53539277 1.503337 1.52682697 1.503337 2.6s-.5732537 2.06460723-1.503337 2.6z" fill="#3f51b5"/><path id="Shape" d="m58 17c-.0009336 1.4556384-1.0466857 2.7005654-2.4803179 2.9527216-1.4336323.2521561-2.8414129-.5612283-3.3389785-1.9291876-.4975655-1.3679593.0586764-2.8957143 1.3192964-3.623534.9285009-.5360705 2.0725043-.5358873 3.0008334.0004806.9283291.536368 1.4998543 1.527379 1.4991666 2.5995194z" fill="#283593"/><g fill="#3f51b5"><path id="Shape" d="m53.5 19.6c-.9300833-.5353928-1.503337-1.526827-1.503337-2.6s.5732537-2.0646072 1.503337-2.6c.9300833.5353928 1.503337 1.526827 1.503337 2.6s-.5732537 2.0646072-1.503337 2.6z"/><circle id="Oval" cx="30" cy="3" r="3"/><circle id="Oval" cx="15" cy="7" r="3"/><circle id="Oval" cx="5" cy="17" r="3"/></g></g><g id="Outline" fill="#000" transform="translate(-1 -1)"><circle id="Oval" cx="19" cy="56" r="1"/><circle id="Oval" cx="19" cy="47" r="1"/><circle id="Oval" cx="43" cy="56" r="1"/><circle id="Oval" cx="43" cy="47" r="1"/><circle id="Oval" cx="31" cy="52" r="1"/><path id="Shape" d="m26.91 33.43c2.5579491-1.3706919 5.6320509-1.3706919 8.19 0 1.4288829.7970144 3.1719093.7825786 4.5873953-.037993s2.2941831-2.3259755 2.3126047-3.962007c.0680056-3.0308822-1.0977715-5.9594367-3.2301262-8.1144158s-5.0484427-3.3515987-8.0798738-3.3155842c-6.033944.3055278-10.7513863 5.3186376-10.69 11.36.003821 1.6465284.8762608 3.1688216 2.2949886 4.0044543 1.4187277.8356327 3.1731242.8605499 4.6150114.0655457zm4.09-3c-1.9123689.0486278-3.7877092.5379958-5.48 1.43 0-3.0375661 2.4624339-5.5 5.5-5.5s5.5 2.4624339 5.5 5.5c-1.701239-.9097851-3.5914265-1.409726-5.52-1.46zm-.25-10.43c2.4871175-.0252953 4.8775919.9618939 6.6221386 2.7347306 1.7445468 1.7728367 2.6931581 4.1788805 2.6278614 6.6652694.0093501.9126298-.4716554 1.7601158-1.26 2.22-.0814386.0408301-.1648771.0775431-.25.11 0-4.1421356-3.3578644-7.5-7.5-7.5s-7.5 3.3578644-7.5 7.5c-.0851229-.0324569-.1685614-.0691699-.25-.11-.7917138-.4735676-1.2659084-1.3378256-1.24-2.26-.0662438-4.9619899 3.794799-9.0922026 8.75-9.36z"/><path id="Shape" d="m7.86 28.74c-.7726016-1.6199772-2.61070063-2.4350235-4.33-1.92-1.62144941.4978968-2.67539641 2.0600712-2.53 3.75.81 8.5 8 11.81 12.28 13 .419646.1223013.7112323.5029834.72.94v11.29c-.0505309 2.6326613 1.8966476 4.8777452 4.51 5.2 1.4087165.1387385 2.8102262-.3261361 3.856772-1.2792743 1.0465458-.9531383 1.6400434-2.3052102 1.633228-3.7207257v-6.89c-.0195982-.5172257.3272527-.9769077.83-1.1.2914388-.0502796.5901856.0310223.8159526.222056.2257671.1910336.3553953.4722029.3540474.767944v6.83c-.0350376 2.621276 1.9082268 4.8489207 4.51 5.17 1.4087165.1387385 2.8102262-.3261361 3.856772-1.2792743 1.0465458-.9531383 1.6400434-2.3052102 1.633228-3.7207257v-6.89c-.0195982-.5172257.3272527-.9769077.83-1.1.2914388-.0502796.5901856.0310223.8159526.222056.2257671.1910336.3553953.4722029.3540474.767944v6.83c-.0350376 2.621276 1.9082268 4.8489207 4.51 5.17 1.4087165.1387385 2.8102262-.3261361 3.856772-1.2792743 1.0465458-.9531383 1.6400434-2.3052102 1.633228-3.7207257 0 0 0-8 0-11.46.0087677-.4370166.300354-.8176987.72-.94 4.24-1.22 11.47-4.54 12.28-13 .1477732-1.6843319-.8965213-3.2445327-2.51-3.75-1.7192994-.5150235-3.5573984.3000228-4.33 1.92-.6947065 1.4860134-1.7887518 2.7497049-3.16 3.65.1990955-2.6606012-.1410332-5.3340123-1-7.86.8220497-1.1633864 1.8366136-2.1779503 3-3 1.2882717 1.5456122 3.5241469 1.8936939 5.2213053.8128542 1.6971585-1.0808397 2.3272843-3.2541413 1.4714951-5.0751811-.8557892-1.8210399-2.931091-2.7229384-4.8463281-2.1061496-1.915237.6167888-3.0742066 2.560262-2.7064723 4.5384765-1.1251632.7503731-2.1356616 1.6598217-3 2.7-1.3113446-2.7589902-3.2372649-5.180929-5.63-7.08.2688749-.9096204.6413144-1.7853566 1.11-2.61 1.8677185.7537188 4.004533.0012164 4.9878174-1.7565139.9832845-1.75773037.5063205-3.97239544-1.1133438-5.16953863-1.6196643-1.1971432-3.876803-1.00333661-5.2686818.45238923s-1.4843255 3.71928269-.2157918 5.2836633c-.4874057.8229431-.895891 1.6901373-1.22 2.59-2.9339561-1.8818918-6.3088001-2.9643239-9.79-3.14v-2.14c1.9503067-.50356703 3.2219252-2.37878672 2.9681188-4.37700052-.2538064-1.99821379-1.9538507-3.49598283-3.9681188-3.49598283s-3.7143124 1.49776904-3.9681188 3.49598283c-.2538064 1.9982138 1.0178121 3.87343349 2.9681188 4.37700052v2.14c-3.4491411.157194-6.7954689 1.2231891-9.7 3.09-.3260114-.9022716-.7344017-1.7726115-1.22-2.6 1.2685337-1.56438061 1.176087-3.82793746-.2157918-5.2836633s-3.6490175-1.64953243-5.2686818-.45238923c-1.6196643 1.19714319-2.0966283 3.41180826-1.1133438 5.16953863.9832844 1.7577303 3.1200989 2.5102327 4.9878174 1.7565139.4678637.8333288.8434187 1.7152125 1.12 2.63-2.3743001 1.919473-4.2850517 4.3497849-5.59 7.11-.8622766-1.0478551-1.8729377-1.9641879-3-2.72.3677343-1.9782145-.79123532-3.9216877-2.70647234-4.5384765-1.91523701-.6167888-3.99053881.2851097-4.84632803 2.1061496-.85578921 1.8210398-.22566341 3.9943414 1.47149505 5.0751811s3.93303359.732758 5.22130532-.8128542c1.1600409.8260122 2.1739878 1.8399591 3 3-.8592319 2.5293813-1.1993499 5.2061102-1 7.87-1.41171615-.8920712-2.54739691-2.1593247-3.28-3.66zm48.14-11.74c1.1045695 0 2 .8954305 2 2s-.8954305 2-2 2-2-.8954305-2-2 .8954305-2 2-2zm-10-10c1.1045695 0 2 .8954305 2 2s-.8954305 2-2 2-2-.8954305-2-2 .8954305-2 2-2zm-32 2c0-1.1045695.8954305-2 2-2s2 .8954305 2 2-.8954305 2-2 2-2-.8954305-2-2zm-8 12c-1.1045695 0-2-.8954305-2-2s.8954305-2 2-2 2 .8954305 2 2-.8954305 2-2 2zm23-16c0-1.1045695.8954305-2 2-2s2 .8954305 2 2-.8954305 2-2 2-2-.8954305-2-2zm-15.95 27.27c-.5028765-6.7327328 2.8041587-13.1807285 8.5654308-16.7007172 5.761272-3.5199887 13.0078664-3.5199887 18.7691384 0 5.7612721 3.5199887 9.0683073 9.9679844 8.5654308 16.7007172-.0570078.7511826.3129256 1.4706725.9570407 1.8613653s1.4531252.3862997 2.0929593-.0113653c1.7009201-1.1092293 3.0585124-2.671153 3.92-4.51.3475944-.7197075 1.1587068-1.0895411 1.93-.88.7266789.2069028 1.2073929.8966229 1.15 1.65-.69 7.31-7.09 10.22-10.85 11.3-1.2654424.3738038-2.1380803 1.5305563-2.15 2.85v11.47c.0042641.8504633-.3526441 1.662771-.9819439 2.2348617s-1.4718462.8501964-2.3180561.7651383c-1.5742802-.217945-2.7353251-1.5810978-2.7-3.17v-11.83c-.0802654-1.6224449-1.3775551-2.9197346-3-3-.5522847 0-1 .4477153-1 1s.4477153 1 1 1c.5198666.0713687.9286313.4801334 1 1v2.17c-.9370524-.3320823-1.977758-.1783852-2.7788131.4103903s-1.2584072 1.5361508-1.2211869 2.5296097v6.89c.0042641.8504633-.3526441 1.662771-.9819439 2.2348617s-1.4718462.8501964-2.3180561.7651383c-1.5742802-.217945-2.7353251-1.5810978-2.7-3.17v-11.83c-.0802654-1.6224449-1.3775551-2.9197346-3-3-.5522847 0-1 .4477153-1 1s.4477153 1 1 1c.5198666.0713687.9286313.4801334 1 1v2.19c-.9336331-.3306141-1.9702802-.1791102-2.7702477.4048661-.7999676.5839763-1.2601499 1.5251579-1.2297523 2.5151339v6.89c-.0469442 1.6568542-1.4281458 2.9619442-3.085 2.915s-2.9619442-1.4281458-2.915-3.085c0 0 0-7.89 0-11.3-.0132421-1.3222067-.8905986-2.4798299-2.16-2.85-3.74-1.08-10.13-3.98-10.84-11.3-.06083608-.7448671.405287-1.4315662 1.12-1.65.77129322-.2095411 1.58240563.1602925 1.93.88.86695448 1.844481 2.23588556 3.4074884 3.95 4.51.6398341.397665 1.4488442.4020581 2.0929593.0113653s1.0140485-1.1101827.9570407-1.8613653z"/></g></g></svg>