<?xml version="1.0" encoding="utf-8"?>
<!-- Generator: Adobe Illustrator 24.0.1, SVG Export Plug-In . SVG Version: 6.00 Build 0)  -->
<svg version="1.1" id="Layer_1" xmlns="http://www.w3.org/2000/svg" xmlns:xlink="http://www.w3.org/1999/xlink" x="0px" y="0px" viewBox="0 0 168 68" style="enable-background:new 0 0 168 68;" xml:space="preserve">
<style>
.st0 {fill:#fff;}
</style>
<path class="st0" d="M65.92,33.89c0-17.67-14.38-32.06-32.03-32.06c-17.67,0-32.06,14.38-32.06,32.06s14.38,32.03,32.06,32.03
	C51.54,65.92,65.92,51.54,65.92,33.89z M4.34,33.89c0-16.31,13.21-29.55,29.55-29.55c16.31,0,29.55,13.21,29.55,29.55
	c0,16.31-13.24,29.55-29.55,29.55C17.56,63.41,4.34,50.2,4.34,33.89z M58.12,33.89c0-10.4-6.58-19.26-15.78-22.72v2.48
	c7.92,3.32,13.46,11.12,13.46,20.21c0,12.1-9.81,21.91-21.91,21.91s-21.91-9.81-21.91-21.91s9.81-21.91,21.91-21.91
	c1.73,0,3.37,0.2,4.99,0.59v-2.37c-1.62-0.33-3.29-0.53-4.99-0.53c-13.38,0-24.25,10.87-24.25,24.25
	c0,13.35,10.87,24.22,24.22,24.22C47.25,58.12,58.12,47.25,58.12,33.89z M17.28,33.89c0,8.7,6.72,15.83,15.22,16.53v-2.9
	c-6.91-0.7-12.32-6.52-12.32-13.63c0-7.55,6.13-13.72,13.72-13.72c7.55,0,13.72,6.13,13.72,13.72c0,6.52-4.6,12.01-10.73,13.35v2.95
	c7.75-1.39,13.63-8.17,13.63-16.31c0-9.14-7.44-16.61-16.61-16.61S17.28,24.72,17.28,33.89z M42.23,33.89c0-4.6-3.74-8.34-8.34-8.34
	c-4.63-0.03-8.36,3.71-8.36,8.34c0,4.6,3.74,8.34,8.34,8.34C38.49,42.23,42.23,38.49,42.23,33.89z M27.84,33.89
	c0-3.32,2.7-6.02,6.02-6.02c3.32,0,6.02,2.7,6.02,6.02c0,3.32-2.7,6.02-6.02,6.02C30.55,39.91,27.84,37.21,27.84,33.89z"/>
<g>
	<rect x="63.52" y="3.45" class="st0" width="2.17" height="32.14"/>
	<g>
		<path class="st0" d="M95.14,35.59H63.97v-2.17h31.19c2.62,0,5.02-2.65,5.02-5.58s-2.4-5.58-5.02-5.58H79.58v-2.2h15.58
			c3.85,0,7.22,3.62,7.22,7.75C102.36,31.97,98.98,35.59,95.14,35.59z"/>
		<path class="st0" d="M73.31,65.78c-5.16,0-9.67-4.18-9.67-8.98v-6.89h2.17v6.89c0,3.57,3.57,6.8,7.5,6.8s7.5-3.23,7.5-6.8v-6.55
			h2.17v6.55C82.98,61.6,78.47,65.78,73.31,65.78z"/>
		<path class="st0" d="M73.31,60.79c-2.23,0-4.21-1.84-4.21-3.96v-5.18h2.17v5.18c0,0.92,0.98,1.76,2.03,1.76
			c1.03,0,2.01-0.86,2.01-1.76v-5.05h2.17v5.05C77.52,58.93,75.54,60.79,73.31,60.79z"/>
		<path class="st0" d="M95.69,44.07h-33.7l0.95-2.17h32.75c6.69,0,12.8-6.69,12.8-14.05s-6.1-14.05-12.8-14.05H71.78v-2.17h23.92
			c7.97,0,15,7.58,15,16.22S103.69,44.07,95.69,44.07z"/>
		<path class="st0" d="M96.2,52.12H63.89v-2.17h32.28c10.57,0,20.18-10.54,20.18-22.11S106.73,5.74,96.17,5.74H63.89V3.56h32.28
			c11.93,0,22.38,11.35,22.38,24.28C118.58,40.78,108.13,52.12,96.2,52.12z"/>
		<rect x="79.5" y="20.12" class="st0" width="2.17" height="15.5"/>
		<rect x="71.78" y="11.79" class="st0" width="2.17" height="23.83"/>
	</g>
</g>
<g>
	<g>
		<g>
			<g>
				<path class="st0" d="M136.09,65h-19.68v-2.23h19.68c15.72,0,28.52-12.8,28.52-28.52s-12.8-28.49-29.35-28.49h-18.51l-0.31-2.23
					h18.51c18.12,0,31.89,13.8,31.89,30.72C166.83,51.2,153.04,65,136.09,65z"/>
				<path class="st0" d="M137.76,55.78h-11.6v-2.23h11.6c10.62,0,19.29-8.64,19.29-19.29c0-10.62-8.64-19.29-19.29-19.29h-11.6
					v-2.23h11.6c11.85,0,21.52,9.65,21.52,21.49C159.28,46.13,149.63,55.78,137.76,55.78z"/>
				<path class="st0" d="M139.68,46.85h-23.28v-2.23h23.28c5.71,0,10.37-4.66,10.37-10.37s-4.66-10.37-10.37-10.37h-4.29v-2.23h4.29
					c6.94,0,12.6,5.66,12.6,12.6S146.65,46.85,139.68,46.85z"/>
			</g>
		</g>
	</g>
	<rect x="135.39" y="22.18" class="st0" width="2.23" height="42.71"/>
	<rect x="126.16" y="12.93" class="st0" width="2.23" height="42.71"/>
	<rect x="116.41" y="3.54" class="st0" width="2.23" height="42.71"/>
</g>
</svg>
